<svg width="90" height="90" viewBox="0 0 90 90" fill="none" xmlns="http://www.w3.org/2000/svg">
<rect x="61.8975" y="8.70215" width="4.32536" height="42.8383" rx="1.30413" transform="rotate(13.6197 61.8975 8.70215)" fill="#2E2E2E"/>
<rect x="72.4683" y="12.6436" width="4.32536" height="42.8383" rx="1.30413" transform="rotate(23.1107 72.4683 12.6436)" fill="#2E2E2E"/>
<path d="M70.7708 57.5712C70.7708 60.6871 70.1042 63.7725 68.8092 66.6512C67.5141 69.53 65.6159 72.1457 63.2229 74.349C60.8299 76.5523 57.989 78.3 54.8625 79.4924C51.7359 80.6848 48.3848 81.2986 45.0006 81.2986C41.6164 81.2986 38.2654 80.6848 35.1388 79.4924C32.0122 78.3 29.1714 76.5523 26.7784 74.349C24.3854 72.1457 22.4872 69.53 21.1921 66.6512C19.897 63.7725 19.2305 60.6871 19.2305 57.5712L45.0006 57.5712H70.7708Z" fill="#412B23"/>
<path d="M80.827 45.6293C80.827 49.9421 79.9003 54.2127 78.0998 58.1971C76.2993 62.1816 73.6604 65.802 70.3335 68.8516C67.0067 71.9012 63.0572 74.3203 58.7105 75.9707C54.3638 77.6211 49.705 78.4706 45.0002 78.4706C40.2953 78.4706 35.6365 77.6211 31.2898 75.9707C26.9431 74.3203 22.9936 71.9012 19.6668 68.8516C16.3399 65.802 13.701 62.1816 11.9005 58.1971C10.1 54.2126 9.17334 49.9421 9.17334 45.6293L45.0002 45.6293H80.827Z" fill="url(#paint0_linear_2470_14666)"/>
<ellipse cx="45.0002" cy="45.6285" rx="35.8268" ry="12.4137" fill="url(#paint1_linear_2470_14666)"/>
<path d="M46.0117 22.3135C51.6643 22.3136 56.5039 24.5348 58.5205 27.6855C58.9138 27.7261 59.3103 27.7769 59.709 27.8408C65.5809 28.7824 70.1775 32.008 71.4209 35.6641C76.1071 37.0208 79.3682 40.0363 79.3682 43.54C79.368 45.7571 78.0612 47.7778 75.915 49.3076C71.0128 53.1639 58.8387 55.8955 44.5967 55.8955C32.8191 55.8955 22.4564 54.0263 16.4502 51.1992C12.4547 49.5381 9.83775 46.626 9.97363 43.4189C10.1047 40.3317 12.7542 37.7321 16.6289 36.3672C17.1962 32.2953 21.9819 28.4243 28.3555 27.2275C30.3287 26.8571 32.2531 26.7824 34.0293 26.96C36.2855 24.1994 40.8037 22.3135 46.0117 22.3135Z" fill="white"/>
<path d="M33.0825 40.4355L34.519 40.4579" stroke="#EBEBEB" stroke-width="2.17355" stroke-linecap="round"/>
<path d="M44.8193 46.957L46.3833 47.7171" stroke="#EBEBEB" stroke-width="2.17355" stroke-linecap="round"/>
<path d="M53.0791 40.3486L54.595 39.132" stroke="#EBEBEB" stroke-width="2.17355" stroke-linecap="round"/>
<path d="M48.9565 30.25L50.8946 30.1011" stroke="#EBEBEB" stroke-width="2.17355" stroke-linecap="round"/>
<path d="M33.0825 33.0723L34.4149 32.1762" stroke="#EBEBEB" stroke-width="2.17355" stroke-linecap="round"/>
<path d="M21.3452 46.957L23.4887 47.7393" stroke="#EBEBEB" stroke-width="2.17355" stroke-linecap="round"/>
<path d="M66.1201 45.5215L67.7394 43.9139" stroke="#EBEBEB" stroke-width="2.17355" stroke-linecap="round"/>
<defs>
<linearGradient id="paint0_linear_2470_14666" x1="45.0002" y1="63.0713" x2="45.0002" y2="78.4706" gradientUnits="userSpaceOnUse">
<stop stop-color="#292929"/>
<stop offset="1" stop-color="#783C27"/>
</linearGradient>
<linearGradient id="paint1_linear_2470_14666" x1="80.827" y1="45.6285" x2="9.17334" y2="45.6285" gradientUnits="userSpaceOnUse">
<stop stop-color="#727272"/>
<stop offset="1" stop-color="#D8D8D8"/>
</linearGradient>
</defs>
</svg>
