<svg width="90" height="90" viewBox="0 0 90 90" fill="none" xmlns="http://www.w3.org/2000/svg">
<path d="M10.1428 36.7832L79.8574 36.7832L45.8377 9.08143C45.3499 8.68424 44.6503 8.68424 44.1625 9.08143L10.1428 36.7832Z" fill="#BB8CCC"/>
<path d="M10.1426 36.7832H79.8572V79.7753C79.8572 80.5079 79.2633 81.1018 78.5307 81.1018H11.4691C10.7365 81.1018 10.1426 80.5079 10.1426 79.7753V36.7832Z" fill="#9D6EAE"/>
<rect x="21.3467" y="19.3535" width="45.8125" height="55.2738" rx="1.32652" fill="white"/>
<path d="M79.8574 80.2732V36.7832L11.1387 81.5998H78.5309C79.2635 81.5998 79.8574 81.0059 79.8574 80.2732Z" fill="#EFC3FF"/>
<path d="M10.1426 80.2732V36.7832L78.3633 81.5998H11.4691C10.7365 81.5998 10.1426 81.0059 10.1426 80.2732Z" fill="#F5D9FF"/>
<path d="M26.0776 35.7881H62.4288" stroke="#F4F5F7" stroke-linecap="round"/>
<path d="M26.0776 28.5664H62.4288" stroke="#F4F5F7" stroke-linecap="round"/>
<path d="M26.0776 43.0078H62.4288" stroke="#F4F5F7" stroke-linecap="round"/>
</svg>
