<svg width="353" height="244" viewBox="0 0 353 244" fill="none" xmlns="http://www.w3.org/2000/svg">
<path d="M7 32C88.5309 32 143.62 32 211.306 32C254.66 32 289.821 67.1456 289.821 110.5V110.5C289.821 153.854 254.676 189 211.321 189H7" stroke="#FFBDA7" stroke-width="10"/>
<rect x="1.14286" y="1.14286" width="61.7143" height="61.7143" rx="30.8571" fill="#FFE2D9"/>
<rect x="1.14286" y="1.14286" width="61.7143" height="61.7143" rx="30.8571" stroke="#FF926D" stroke-width="2.28571" stroke-dasharray="9.14 9.14"/>
<path d="M17.1431 31.9999L26.5519 41.5975C27.5081 42.5729 29.1008 42.4974 29.9604 41.4359L46.8574 20.5713" stroke="#FF480A" stroke-width="4.57143" stroke-linecap="round"/>
<path d="M22.9121 74.5156V83H21.6113V75.8047H21.5645L19.5371 77.1289V75.8984L21.6465 74.5156H22.9121ZM27.6816 73.8477C29.2637 73.8594 30.4238 74.832 30.4355 76.2031C30.4238 77.5859 29.2637 78.5469 27.6816 78.5469C26.0879 78.5469 24.916 77.5859 24.916 76.2031C24.916 74.832 26.0879 73.8594 27.6816 73.8477ZM27.6816 74.7852C26.709 74.7734 25.9941 75.3477 26.0059 76.2031C25.9941 77.0703 26.709 77.6445 27.6816 77.6445C28.6426 77.6445 29.3574 77.0703 29.3574 76.2031C29.3574 75.3477 28.6426 74.7734 27.6816 74.7852ZM33.4121 73.4961V78.8398H32.2988V73.4961H33.4121ZM33.4121 79.3203V81.9688H27.623V82.9766H33.7637V83.8672H26.5449V81.1367H32.3105V80.2109H26.5098V79.3203H33.4121ZM38.6738 76.8711C38.6738 78.4883 39.6582 80.1992 41.2285 80.9492L40.5957 81.793C39.4531 81.2539 38.5918 80.1582 38.1465 78.875C37.6836 80.2637 36.7695 81.4238 35.5684 81.9805L34.9473 81.125C36.541 80.3984 37.584 78.6055 37.584 76.8711V76.1797H35.2637V75.2891H37.5723V73.707H38.6973V75.2891H40.9824V76.1797H38.6738V76.8711ZM43.2559 73.4961V77.7266H44.9434V78.6641H43.2559V83.9961H42.1426V73.4961H43.2559Z" fill="#5B5B5B"/>
<rect x="1.14286" y="158.143" width="61.7143" height="61.7143" rx="30.8571" fill="#FFE2D9"/>
<rect x="1.14286" y="158.143" width="61.7143" height="61.7143" rx="30.8571" stroke="#FF926D" stroke-width="2.28571" stroke-dasharray="9.14 9.14"/>
<path d="M50.1313 176.049C51.0253 176.049 51.7503 176.774 51.7505 177.667V187.714C51.022 187.795 50.4556 188.413 50.4556 189.163C50.4557 189.912 51.0222 190.528 51.7505 190.609V200.333C51.7503 201.226 51.0253 201.951 50.1313 201.951H13.8687C12.9747 201.951 12.2497 201.226 12.2495 200.333V190.609C12.3028 190.615 12.3568 190.62 12.4116 190.62C13.2162 190.62 13.8685 189.967 13.8687 189.163C13.8687 188.358 13.2163 187.706 12.4116 187.706C12.3568 187.706 12.3027 187.708 12.2495 187.714V177.667C12.2497 176.774 12.9747 176.049 13.8687 176.049H50.1313Z" fill="url(#paint0_linear_2475_14722)"/>
<path d="M41.9743 191.455C41.961 190.328 41.961 187.253 41.9743 186.08C42.2792 186.033 42.8028 186.033 42.995 186.08C43.4921 186.802 44.6453 188.691 44.9436 189.254C44.9237 188.824 44.9237 186.61 44.9436 186.08C45.2949 186.04 45.8119 186.04 46.0505 186.08C46.0637 187.293 46.0637 190.421 46.0505 191.455C45.8052 191.508 45.4274 191.508 45.096 191.455C44.6984 190.892 43.4324 188.817 43.0812 188.161C43.0944 188.824 43.101 191.064 43.0812 191.455C42.7564 191.501 42.3256 191.495 41.9743 191.455Z" fill="white"/>
<path d="M39.0537 191.555C37.5557 191.555 36.7339 190.746 36.7339 188.778C36.7339 186.822 37.5491 186 39.0537 186C40.5516 186 41.3668 186.822 41.3668 188.778C41.3668 190.792 40.4919 191.555 39.0537 191.555ZM39.0537 190.501C39.796 190.501 40.2334 190.11 40.2334 188.778C40.2334 187.638 39.9418 187.054 39.0537 187.054C38.2517 187.054 37.8673 187.512 37.8673 188.778C37.8673 190.083 38.2848 190.501 39.0537 190.501Z" fill="white"/>
<path d="M34.6345 186.08C35.7812 186.12 36.3247 186.816 36.3247 187.83C36.3247 189.036 35.6486 189.613 34.5484 189.639C34.3893 189.646 34.0712 189.646 33.7994 189.646C33.7994 190.474 33.7994 191.236 33.7928 191.455C33.5012 191.495 33.024 191.495 32.6859 191.455C32.6594 190.587 32.6661 186.802 32.6859 186.08C33.2626 186.067 34.0645 186.06 34.6345 186.08ZM34.4954 188.585C34.9991 188.565 35.1913 188.327 35.1913 187.876C35.1913 187.372 34.9991 187.154 34.4821 187.127C34.2435 187.114 34.0314 187.114 33.7928 187.127C33.7994 187.306 33.7994 187.903 33.7994 188.592C34.0181 188.599 34.2302 188.592 34.4954 188.585Z" fill="white"/>
<path d="M29.9362 191.555C28.4118 191.555 27.9213 190.846 27.908 189.308C27.9014 188.487 27.8948 186.525 27.908 186.081C28.2196 186.041 28.7962 186.041 29.0414 186.081C29.048 186.485 29.0348 188.719 29.0348 189.388C29.0348 190.276 29.3065 190.501 29.9362 190.501C30.5658 190.501 30.8309 190.276 30.8309 189.388C30.8309 188.699 30.8376 186.492 30.8309 186.081C31.1159 186.041 31.7125 186.041 31.9643 186.081C31.9709 186.492 31.9709 188.493 31.9643 189.308C31.9511 190.846 31.454 191.555 29.9362 191.555Z" fill="white"/>
<path d="M25.0532 191.555C23.5553 191.555 22.7334 190.746 22.7334 188.778C22.7334 186.822 23.5486 186 25.0532 186C26.5511 186 27.3663 186.822 27.3663 188.778C27.3663 190.792 26.4914 191.555 25.0532 191.555ZM25.0532 190.501C25.7955 190.501 26.2329 190.11 26.2329 188.778C26.2329 187.638 25.9413 187.054 25.0532 187.054C24.2512 187.054 23.8668 187.512 23.8668 188.778C23.8668 190.083 24.2843 190.501 25.0532 190.501Z" fill="white"/>
<path d="M20.743 191.555C19.2848 191.555 18.4033 190.713 18.4033 188.778C18.4033 186.842 19.2848 186 20.7165 186C21.4389 186 21.9426 186.186 22.4265 186.736C22.274 187.021 22.0155 187.319 21.7835 187.498C21.5383 187.227 21.2069 187.061 20.7165 187.061C20.0006 187.061 19.5301 187.525 19.5301 188.778C19.5301 190.03 20.0006 190.494 20.743 190.494C21.2533 190.494 21.6179 190.335 21.8697 190.063C22.1017 190.236 22.3602 190.541 22.5126 190.826C22.0222 191.369 21.4853 191.555 20.743 191.555Z" fill="white"/>
<path d="M19.3145 240L23.0996 232.688V232.617H18.7285V231.516H24.4355V232.664L20.6621 240H19.3145ZM28.3496 230.848C29.9316 230.859 31.0918 231.832 31.1035 233.203C31.0918 234.586 29.9316 235.547 28.3496 235.547C26.7559 235.547 25.584 234.586 25.584 233.203C25.584 231.832 26.7559 230.859 28.3496 230.848ZM28.3496 231.785C27.377 231.773 26.6621 232.348 26.6738 233.203C26.6621 234.07 27.377 234.645 28.3496 234.645C29.3105 234.645 30.0254 234.07 30.0254 233.203C30.0254 232.348 29.3105 231.773 28.3496 231.785ZM34.0801 230.496V235.84H32.9668V230.496H34.0801ZM34.0801 236.32V238.969H28.291V239.977H34.4316V240.867H27.2129V238.137H32.9785V237.211H27.1777V236.32H34.0801ZM39.3418 233.871C39.3418 235.488 40.3262 237.199 41.8965 237.949L41.2637 238.793C40.1211 238.254 39.2598 237.158 38.8145 235.875C38.3516 237.264 37.4375 238.424 36.2363 238.98L35.6152 238.125C37.209 237.398 38.252 235.605 38.252 233.871V233.18H35.9316V232.289H38.2402V230.707H39.3652V232.289H41.6504V233.18H39.3418V233.871ZM43.9238 230.496V234.727H45.6113V235.664H43.9238V240.996H42.8105V230.496H43.9238Z" fill="#5B5B5B"/>
<rect x="85.1429" y="1.14286" width="61.7143" height="61.7143" rx="30.8571" fill="#FFE2D9"/>
<rect x="85.1429" y="1.14286" width="61.7143" height="61.7143" rx="30.8571" stroke="#FF926D" stroke-width="2.28571" stroke-dasharray="9.14 9.14"/>
<path d="M101.143 31.9999L110.552 41.5975C111.508 42.5729 113.101 42.4974 113.96 41.4359L130.857 20.5713" stroke="#FF480A" stroke-width="4.57143" stroke-linecap="round"/>
<path d="M102.811 83V82.0625L105.752 79.0977C106.678 78.125 107.146 77.5859 107.146 76.8477C107.146 76.0156 106.467 75.4766 105.576 75.4766C104.639 75.4766 104.029 76.0742 104.029 76.9766H102.811C102.799 75.4297 103.982 74.3984 105.6 74.3984C107.24 74.3984 108.365 75.4297 108.377 76.8125C108.365 77.7617 107.92 78.5117 106.326 80.082L104.604 81.8281V81.8984H108.518V83H102.811ZM112.561 73.8477C114.143 73.8594 115.303 74.832 115.314 76.2031C115.303 77.5859 114.143 78.5469 112.561 78.5469C110.967 78.5469 109.795 77.5859 109.795 76.2031C109.795 74.832 110.967 73.8594 112.561 73.8477ZM112.561 74.7852C111.588 74.7734 110.873 75.3477 110.885 76.2031C110.873 77.0703 111.588 77.6445 112.561 77.6445C113.521 77.6445 114.236 77.0703 114.236 76.2031C114.236 75.3477 113.521 74.7734 112.561 74.7852ZM118.291 73.4961V78.8398H117.178V73.4961H118.291ZM118.291 79.3203V81.9688H112.502V82.9766H118.643V83.8672H111.424V81.1367H117.189V80.2109H111.389V79.3203H118.291ZM123.553 76.8711C123.553 78.4883 124.537 80.1992 126.107 80.9492L125.475 81.793C124.332 81.2539 123.471 80.1582 123.025 78.875C122.562 80.2637 121.648 81.4238 120.447 81.9805L119.826 81.125C121.42 80.3984 122.463 78.6055 122.463 76.8711V76.1797H120.143V75.2891H122.451V73.707H123.576V75.2891H125.861V76.1797H123.553V76.8711ZM128.135 73.4961V77.7266H129.822V78.6641H128.135V83.9961H127.021V73.4961H128.135Z" fill="#5B5B5B"/>
<rect x="85.1429" y="158.143" width="61.7143" height="61.7143" rx="30.8571" fill="#FFE2D9"/>
<rect x="85.1429" y="158.143" width="61.7143" height="61.7143" rx="30.8571" stroke="#FF926D" stroke-width="2.28571" stroke-dasharray="9.14 9.14"/>
<path d="M101.143 189L110.552 198.598C111.508 199.573 113.101 199.497 113.96 198.436L130.857 177.571" stroke="#FF480A" stroke-width="4.57143" stroke-linecap="round"/>
<path d="M105.711 240.117C104.141 240.105 102.5 239.18 102.5 236.039C102.5 233.086 103.777 231.398 105.816 231.398C107.375 231.398 108.465 232.371 108.664 233.719H107.387C107.223 233.027 106.672 232.523 105.816 232.523C104.504 232.523 103.742 233.672 103.742 235.582H103.836C104.293 234.867 105.09 234.434 106.016 234.434C107.527 234.434 108.746 235.594 108.746 237.223C108.746 238.863 107.539 240.129 105.711 240.117ZM105.699 239.039C106.73 239.039 107.492 238.242 107.492 237.246C107.492 236.273 106.754 235.488 105.734 235.488C104.691 235.488 103.906 236.309 103.895 237.258C103.906 238.195 104.656 239.039 105.699 239.039ZM112.73 230.848C114.312 230.859 115.473 231.832 115.484 233.203C115.473 234.586 114.312 235.547 112.73 235.547C111.137 235.547 109.965 234.586 109.965 233.203C109.965 231.832 111.137 230.859 112.73 230.848ZM112.73 231.785C111.758 231.773 111.043 232.348 111.055 233.203C111.043 234.07 111.758 234.645 112.73 234.645C113.691 234.645 114.406 234.07 114.406 233.203C114.406 232.348 113.691 231.773 112.73 231.785ZM118.461 230.496V235.84H117.348V230.496H118.461ZM118.461 236.32V238.969H112.672V239.977H118.812V240.867H111.594V238.137H117.359V237.211H111.559V236.32H118.461ZM123.723 233.871C123.723 235.488 124.707 237.199 126.277 237.949L125.645 238.793C124.502 238.254 123.641 237.158 123.195 235.875C122.732 237.264 121.818 238.424 120.617 238.98L119.996 238.125C121.59 237.398 122.633 235.605 122.633 233.871V233.18H120.312V232.289H122.621V230.707H123.746V232.289H126.031V233.18H123.723V233.871ZM128.305 230.496V234.727H129.992V235.664H128.305V240.996H127.191V230.496H128.305Z" fill="#5B5B5B"/>
<rect x="169.143" y="1.14286" width="61.7143" height="61.7143" rx="30.8571" fill="#FFE2D9"/>
<rect x="169.143" y="1.14286" width="61.7143" height="61.7143" rx="30.8571" stroke="#FF926D" stroke-width="2.28571" stroke-dasharray="9.14 9.14"/>
<path d="M185.143 31.9999L194.552 41.5975C195.508 42.5729 197.101 42.4974 197.96 41.4359L214.857 20.5713" stroke="#FF480A" stroke-width="4.57143" stroke-linecap="round"/>
<path d="M189.646 83.1172C187.889 83.1172 186.635 82.168 186.588 80.7852H187.9C187.947 81.5352 188.686 82.0039 189.635 82.0039C190.654 82.0039 191.404 81.4414 191.404 80.6211C191.404 79.7891 190.701 79.1797 189.494 79.1797H188.768V78.125H189.494C190.455 78.125 191.135 77.5859 191.135 76.7773C191.135 76.0039 190.561 75.4766 189.658 75.4766C188.803 75.4766 188.053 75.9453 188.018 76.7188H186.775C186.811 75.3359 188.088 74.3984 189.67 74.3984C191.334 74.3984 192.389 75.4531 192.377 76.707C192.389 77.668 191.791 78.3711 190.877 78.5938V78.6523C192.037 78.8164 192.705 79.5898 192.705 80.668C192.705 82.0859 191.404 83.1172 189.646 83.1172ZM196.736 73.8477C198.318 73.8594 199.479 74.832 199.49 76.2031C199.479 77.5859 198.318 78.5469 196.736 78.5469C195.143 78.5469 193.971 77.5859 193.971 76.2031C193.971 74.832 195.143 73.8594 196.736 73.8477ZM196.736 74.7852C195.764 74.7734 195.049 75.3477 195.061 76.2031C195.049 77.0703 195.764 77.6445 196.736 77.6445C197.697 77.6445 198.412 77.0703 198.412 76.2031C198.412 75.3477 197.697 74.7734 196.736 74.7852ZM202.467 73.4961V78.8398H201.354V73.4961H202.467ZM202.467 79.3203V81.9688H196.678V82.9766H202.818V83.8672H195.6V81.1367H201.365V80.2109H195.564V79.3203H202.467ZM207.729 76.8711C207.729 78.4883 208.713 80.1992 210.283 80.9492L209.65 81.793C208.508 81.2539 207.646 80.1582 207.201 78.875C206.738 80.2637 205.824 81.4238 204.623 81.9805L204.002 81.125C205.596 80.3984 206.639 78.6055 206.639 76.8711V76.1797H204.318V75.2891H206.627V73.707H207.752V75.2891H210.037V76.1797H207.729V76.8711ZM212.311 73.4961V77.7266H213.998V78.6641H212.311V83.9961H211.197V73.4961H212.311Z" fill="#5B5B5B"/>
<rect x="169.143" y="158.143" width="61.7143" height="61.7143" rx="30.8571" fill="#FFE2D9"/>
<rect x="169.143" y="158.143" width="61.7143" height="61.7143" rx="30.8571" stroke="#FF926D" stroke-width="2.28571" stroke-dasharray="9.14 9.14"/>
<path d="M185.143 189L194.552 198.598C195.508 199.573 197.101 199.497 197.96 198.436L214.857 177.571" stroke="#FF480A" stroke-width="4.57143" stroke-linecap="round"/>
<path d="M189.623 240.117C188.018 240.117 186.811 239.133 186.752 237.785H188.006C188.076 238.512 188.768 239.039 189.623 239.039C190.654 239.039 191.393 238.289 191.393 237.281C191.393 236.25 190.631 235.5 189.564 235.488C188.885 235.488 188.369 235.711 188.076 236.238H186.857L187.408 231.516H192.213V232.617H188.475L188.193 234.996H188.275C188.627 234.656 189.225 234.422 189.869 234.422C191.463 234.422 192.646 235.605 192.646 237.246C192.646 238.922 191.393 240.117 189.623 240.117ZM196.631 230.848C198.213 230.859 199.373 231.832 199.385 233.203C199.373 234.586 198.213 235.547 196.631 235.547C195.037 235.547 193.865 234.586 193.865 233.203C193.865 231.832 195.037 230.859 196.631 230.848ZM196.631 231.785C195.658 231.773 194.943 232.348 194.955 233.203C194.943 234.07 195.658 234.645 196.631 234.645C197.592 234.645 198.307 234.07 198.307 233.203C198.307 232.348 197.592 231.773 196.631 231.785ZM202.361 230.496V235.84H201.248V230.496H202.361ZM202.361 236.32V238.969H196.572V239.977H202.713V240.867H195.494V238.137H201.26V237.211H195.459V236.32H202.361ZM207.623 233.871C207.623 235.488 208.607 237.199 210.178 237.949L209.545 238.793C208.402 238.254 207.541 237.158 207.096 235.875C206.633 237.264 205.719 238.424 204.518 238.98L203.896 238.125C205.49 237.398 206.533 235.605 206.533 233.871V233.18H204.213V232.289H206.521V230.707H207.646V232.289H209.932V233.18H207.623V233.871ZM212.205 230.496V234.727H213.893V235.664H212.205V240.996H211.092V230.496H212.205Z" fill="#5B5B5B"/>
<rect x="253.143" y="80.1429" width="61.7143" height="61.7143" rx="30.8571" fill="#FFE2D9"/>
<rect x="253.143" y="80.1429" width="61.7143" height="61.7143" rx="30.8571" stroke="#FF926D" stroke-width="2.28571" stroke-dasharray="9.14 9.14"/>
<path d="M269.143 111L278.552 120.598C279.508 121.573 281.101 121.497 281.96 120.436L298.857 99.5713" stroke="#FF480A" stroke-width="4.57143" stroke-linecap="round"/>
<path d="M324.883 113.848V112.805L328.633 107.016H330.227V112.758H331.387V113.848H330.227V115.5H329.008V113.848H324.883ZM326.242 112.758H329.008V108.551H328.914L326.242 112.688V112.758ZM335.301 106.348C336.883 106.359 338.043 107.332 338.055 108.703C338.043 110.086 336.883 111.047 335.301 111.047C333.707 111.047 332.535 110.086 332.535 108.703C332.535 107.332 333.707 106.359 335.301 106.348ZM335.301 107.285C334.328 107.273 333.613 107.848 333.625 108.703C333.613 109.57 334.328 110.145 335.301 110.145C336.262 110.145 336.977 109.57 336.977 108.703C336.977 107.848 336.262 107.273 335.301 107.285ZM341.031 105.996V111.34H339.918V105.996H341.031ZM341.031 111.82V114.469H335.242V115.477H341.383V116.367H334.164V113.637H339.93V112.711H334.129V111.82H341.031ZM346.293 109.371C346.293 110.988 347.277 112.699 348.848 113.449L348.215 114.293C347.072 113.754 346.211 112.658 345.766 111.375C345.303 112.764 344.389 113.924 343.188 114.48L342.566 113.625C344.16 112.898 345.203 111.105 345.203 109.371V108.68H342.883V107.789H345.191V106.207H346.316V107.789H348.602V108.68H346.293V109.371ZM350.875 105.996V110.227H352.562V111.164H350.875V116.496H349.762V105.996H350.875Z" fill="#5B5B5B"/>
<defs>
<linearGradient id="paint0_linear_2475_14722" x1="32" y1="176.049" x2="32" y2="201.951" gradientUnits="userSpaceOnUse">
<stop stop-color="#FF551B"/>
<stop offset="1" stop-color="#FFA485"/>
</linearGradient>
</defs>
</svg>
