<svg width="40" height="26" viewBox="0 0 40 26" fill="none" xmlns="http://www.w3.org/2000/svg">
<path d="M38.1313 0.0488281C39.0253 0.0488281 39.7503 0.77308 39.7505 1.66699V11.7139C39.022 11.7944 38.4556 12.4122 38.4556 13.1621C38.4557 13.9119 39.0222 14.5278 39.7505 14.6084V24.332C39.7503 25.226 39.0253 25.9502 38.1313 25.9502H1.86865C0.974669 25.9502 0.249675 25.226 0.249512 24.332V14.6084C0.302788 14.6143 0.35677 14.6191 0.411621 14.6191C1.2162 14.6191 1.8685 13.9667 1.86865 13.1621C1.86865 12.3574 1.2163 11.7051 0.411621 11.7051C0.356821 11.7051 0.30274 11.708 0.249512 11.7139V1.66699C0.249715 0.773081 0.974693 0.0488281 1.86865 0.0488281H38.1313Z" fill="url(#paint0_linear_2400_6271)"/>
<path d="M29.9743 15.4549C29.961 14.3282 29.961 11.2529 29.9743 10.0797C30.2792 10.0333 30.8028 10.0333 30.995 10.0797C31.4921 10.8022 32.6453 12.6911 32.9436 13.2545C32.9237 12.8237 32.9237 10.61 32.9436 10.0797C33.2949 10.04 33.8119 10.04 34.0505 10.0797C34.0637 11.2926 34.0637 14.421 34.0505 15.4549C33.8052 15.508 33.4274 15.508 33.096 15.4549C32.6984 14.8916 31.4324 12.817 31.0812 12.1609C31.0944 12.8237 31.101 15.0639 31.0812 15.4549C30.7564 15.5013 30.3256 15.4947 29.9743 15.4549Z" fill="white"/>
<path d="M27.0537 15.5542C25.5557 15.5542 24.7339 14.7456 24.7339 12.7771C24.7339 10.8219 25.5491 10 27.0537 10C28.5516 10 29.3668 10.8219 29.3668 12.7771C29.3668 14.792 28.4919 15.5542 27.0537 15.5542ZM27.0537 14.5003C27.796 14.5003 28.2334 14.1093 28.2334 12.7771C28.2334 11.6371 27.9418 11.0538 27.0537 11.0538C26.2517 11.0538 25.8673 11.5112 25.8673 12.7771C25.8673 14.0828 26.2848 14.5003 27.0537 14.5003Z" fill="white"/>
<path d="M22.6345 10.0799C23.7812 10.1197 24.3247 10.8156 24.3247 11.8297C24.3247 13.036 23.6486 13.6126 22.5484 13.6391C22.3893 13.6457 22.0712 13.6457 21.7994 13.6457C21.7994 14.4742 21.7994 15.2364 21.7928 15.4552C21.5012 15.4949 21.024 15.4949 20.6859 15.4552C20.6594 14.5869 20.6661 10.8024 20.6859 10.0799C21.2626 10.0667 22.0645 10.06 22.6345 10.0799ZM22.4954 12.5853C22.9991 12.5654 23.1913 12.3268 23.1913 11.8761C23.1913 11.3724 22.9991 11.1537 22.4821 11.1271C22.2435 11.1139 22.0314 11.1139 21.7928 11.1271C21.7994 11.3061 21.7994 11.9026 21.7994 12.5919C22.0181 12.5985 22.2302 12.5919 22.4954 12.5853Z" fill="white"/>
<path d="M17.9362 15.5543C16.4118 15.5543 15.9213 14.8451 15.908 13.3074C15.9014 12.4856 15.8948 10.5237 15.908 10.0796C16.2196 10.0399 16.7962 10.0399 17.0414 10.0796C17.048 10.4839 17.0348 12.7175 17.0348 13.387C17.0348 14.2751 17.3065 14.5004 17.9362 14.5004C18.5658 14.5004 18.8309 14.2751 18.8309 13.387C18.8309 12.6977 18.8376 10.4906 18.8309 10.0796C19.1159 10.0399 19.7125 10.0399 19.9643 10.0796C19.9709 10.4906 19.9709 12.4922 19.9643 13.3074C19.9511 14.8451 19.454 15.5543 17.9362 15.5543Z" fill="white"/>
<path d="M13.0532 15.5542C11.5553 15.5542 10.7334 14.7456 10.7334 12.7771C10.7334 10.8219 11.5486 10 13.0532 10C14.5511 10 15.3663 10.8219 15.3663 12.7771C15.3663 14.792 14.4914 15.5542 13.0532 15.5542ZM13.0532 14.5003C13.7955 14.5003 14.2329 14.1093 14.2329 12.7771C14.2329 11.6371 13.9413 11.0538 13.0532 11.0538C12.2512 11.0538 11.8668 11.5112 11.8668 12.7771C11.8668 14.0828 12.2843 14.5003 13.0532 14.5003Z" fill="white"/>
<path d="M8.74297 15.5542C7.28483 15.5542 6.40332 14.7124 6.40332 12.7771C6.40332 10.8417 7.28483 10 8.71646 10C9.4389 10 9.94262 10.1856 10.4265 10.7357C10.274 11.0207 10.0155 11.319 9.78355 11.4979C9.53832 11.2262 9.20692 11.0605 8.71646 11.0605C8.00064 11.0605 7.53006 11.5244 7.53006 12.7771C7.53006 14.0298 8.00064 14.4937 8.74297 14.4937C9.25332 14.4937 9.61785 14.3346 9.86971 14.0629C10.1017 14.2352 10.3602 14.5401 10.5126 14.8251C10.0222 15.3686 9.48529 15.5542 8.74297 15.5542Z" fill="white"/>
<defs>
<linearGradient id="paint0_linear_2400_6271" x1="20" y1="0.0488281" x2="20" y2="25.9502" gradientUnits="userSpaceOnUse">
<stop stop-color="#FF551B"/>
<stop offset="1" stop-color="#FFA485"/>
</linearGradient>
</defs>
</svg>
