<svg width="160" height="132" viewBox="0 0 160 132" fill="none" xmlns="http://www.w3.org/2000/svg">
<circle cx="66.7819" cy="101.736" r="12.971" transform="rotate(22.604 66.7819 101.736)" fill="url(#paint0_linear_1614_10757)"/>
<circle cx="100.731" cy="25.8096" r="6.42556" transform="rotate(22.604 100.731 25.8096)" stroke="#1C1C1C" stroke-width="6"/>
<path d="M99.845 26.5751C116.48 33.5009 122.96 51.9298 117.979 69.0826L108.325 101.574L40.6462 73.3971L56.903 43.6542C65.2344 27.8962 83.2101 19.6493 99.845 26.5751Z" fill="url(#paint1_radial_1614_10757)"/>
<rect x="35.891" y="65.7448" width="87.9719" height="20.9457" rx="10.4728" transform="rotate(22.604 35.891 65.7448)" fill="url(#paint2_linear_1614_10757)"/>
<path d="M12.7829 89.1237C11.2098 92.9881 10.3289 101.876 19.3898 106.513" stroke="#FFBD9A" stroke-width="4" stroke-linecap="round"/>
<path d="M3.57324 84.7761C1.10129 91.2973 -0.28301 106.296 13.9555 114.121" stroke="#FFBD9A" stroke-width="4" stroke-linecap="round"/>
<path d="M144.53 42.8107C145.82 37.5548 145.274 25.9825 132.771 21.7406" stroke="#FFBD9A" stroke-width="4" stroke-linecap="round"/>
<path d="M157.169 46.6515C159.111 37.8166 158.059 18.3077 138.31 10.9511" stroke="#FFBD9A" stroke-width="4" stroke-linecap="round"/>
<defs>
<linearGradient id="paint0_linear_1614_10757" x1="65.3951" y1="103.697" x2="71.2435" y2="117.744" gradientUnits="userSpaceOnUse">
<stop stop-color="#1C1C1C"/>
<stop offset="1" stop-color="#83442F"/>
</linearGradient>
<radialGradient id="paint1_radial_1614_10757" cx="0" cy="0" r="1" gradientUnits="userSpaceOnUse" gradientTransform="translate(79.4451 21.8281) rotate(87.5614) scale(64.6909 71.7779)">
<stop offset="0.187086" stop-color="#FFAA8E"/>
<stop offset="1" stop-color="#FF4304"/>
</radialGradient>
<linearGradient id="paint2_linear_1614_10757" x1="66.7716" y1="64.0837" x2="75.0911" y2="88.4369" gradientUnits="userSpaceOnUse">
<stop stop-color="#FF936F"/>
<stop offset="1" stop-color="#FF4000"/>
</linearGradient>
</defs>
</svg>
