<svg width="20" height="20" viewBox="0 0 20 20" fill="none" xmlns="http://www.w3.org/2000/svg">
<g clip-path="url(#clip0_2329_10866)">
<path d="M4.1835 7.09229V12.9088" stroke="#303030" stroke-width="1.50029" stroke-linejoin="round"/>
<path d="M8.54588 7.09229V12.9088" stroke="#303030" stroke-width="1.50029" stroke-linejoin="round"/>
<path d="M7.09175 7.09229V12.9088" stroke="#303030" stroke-width="0.450086" stroke-linejoin="round"/>
<path d="M12.9082 7.09229V12.9088" stroke="#303030" stroke-width="0.450086" stroke-linejoin="round"/>
<path d="M14.3624 7.09229V12.9088" stroke="#303030" stroke-width="0.450086" stroke-linejoin="round"/>
<path d="M5.63763 7.09229V12.9088" stroke="#303030" stroke-width="0.300058" stroke-linejoin="round"/>
<path d="M10 7.09229V12.9088" stroke="#303030" stroke-width="0.300058" stroke-linejoin="round"/>
<path d="M15.8165 7.09229V12.9088" stroke="#303030" stroke-width="1.50029" stroke-linejoin="round"/>
<path d="M11.4541 7.09229V12.9088" stroke="#303030" stroke-width="1.50029" stroke-linejoin="round"/>
<path d="M1 5.84615V2.38462C1 2.01739 1.14588 1.66521 1.40554 1.40554C1.66521 1.14588 2.01739 1 2.38462 1H5.84615" stroke="#303030" stroke-width="1.5" stroke-linecap="round" stroke-linejoin="round"/>
<path d="M19 5.84615V2.38462C19 2.01739 18.8541 1.66521 18.5945 1.40554C18.3348 1.14588 17.9826 1 17.6154 1H14.1538" stroke="#303030" stroke-width="1.5" stroke-linecap="round" stroke-linejoin="round"/>
<path d="M1 14.1539V17.6155C1 17.9827 1.14588 18.3349 1.40554 18.5945C1.66521 18.8542 2.01739 19.0001 2.38462 19.0001H5.84615" stroke="#303030" stroke-width="1.5" stroke-linecap="round" stroke-linejoin="round"/>
<path d="M19 14.1539V17.6155C19 17.9827 18.8541 18.3349 18.5945 18.5945C18.3348 18.8542 17.9826 19.0001 17.6154 19.0001H14.1538" stroke="#303030" stroke-width="1.5" stroke-linecap="round" stroke-linejoin="round"/>
</g>
<defs>
<clipPath id="clip0_2329_10866">
<rect width="20" height="20" fill="white"/>
</clipPath>
</defs>
</svg>
