<svg width="59" height="22" viewBox="0 0 59 22" fill="none" xmlns="http://www.w3.org/2000/svg">
<path d="M37.6846 13.5664V21.8018H35.1367V15.7061H24.1924V13.5664H37.6846ZM51.6602 13.2539C53.5235 13.2539 55.2493 13.5241 56.5107 14.1865C57.7755 14.8507 58.5742 15.911 58.5742 17.4805C58.5741 19.0495 57.7813 20.1092 56.5195 20.7734C55.2611 21.4358 53.5353 21.7061 51.6602 21.7061C49.773 21.706 48.0416 21.4359 46.7803 20.7734C45.5155 20.1092 44.7228 19.0495 44.7227 17.4805C44.7227 15.9112 45.5154 14.8508 46.7803 14.1865C48.0416 13.5241 49.773 13.254 51.6602 13.2539ZM6.4502 12.8945V15.1738H14.2461V12.8945H16.7939V21.4658H3.90234V12.8945H6.4502ZM51.6602 15.2744C50.3782 15.2744 49.2894 15.4066 48.5225 15.75C48.1398 15.9214 47.8394 16.1443 47.6348 16.4277C47.4304 16.7108 47.3184 17.0578 47.3184 17.4805C47.3184 17.8968 47.4296 18.2389 47.6338 18.5186C47.8384 18.7987 48.1388 19.0195 48.5215 19.1895C49.2885 19.53 50.3781 19.6621 51.6602 19.6621C52.9302 19.6621 54.0199 19.53 54.79 19.1895C55.1744 19.0194 55.4771 18.7979 55.6836 18.5176C55.8895 18.238 56.0029 17.8966 56.0029 17.4805C56.0029 17.0577 55.8928 16.7108 55.6904 16.4277C55.4877 16.1443 55.1896 15.9214 54.8086 15.75C54.0446 15.4065 52.9545 15.2744 51.6602 15.2744ZM6.4502 19.3262H14.2461V17.2656H6.4502V19.3262ZM58.6465 0.198242V12.7305H56.1709V8.29004H53.7988V12.0098H51.3945V0.917969H53.7988V6.15039H56.1709V0.198242H58.6465ZM37.6846 0.198242V12.5137H35.1367V7.49805H31.7041V5.3584H35.1367V0.198242H37.6846ZM16.7939 0.198242V6.15039H20.5381V8.29004H16.7939V11.8896H14.2461V0.198242H16.7939ZM3.35352 1.83008V4.70996H8.07812V1.83008H10.4824V11.5781H0.950195V1.83008H3.35352ZM49.5264 2.4541V4.59375H44.2705V9.38867C46.1107 9.38315 48.6409 9.07572 49.9697 8.79102L50.0254 8.7793L50.0303 8.83496L50.2227 10.8271L50.2266 10.8721L50.1826 10.8809C47.6585 11.4097 45.1106 11.5303 44.2441 11.5303H41.7949V2.4541H49.5264ZM30.6523 2.09375V10.9297H21.3848V2.09375H30.6523ZM3.35352 9.48633H8.07812V6.80176H3.35352V9.48633ZM23.7881 8.91016H28.2246V4.11426H23.7881V8.91016Z" fill="#121212" stroke="#121212" stroke-width="0.1"/>
</svg>
