<svg width="16" height="16" viewBox="0 0 16 16" fill="none" xmlns="http://www.w3.org/2000/svg">
<path d="M6.15389 6.15384C7.30094 6.15384 8.23081 5.22397 8.23081 4.07692C8.23081 2.92987 7.30094 2 6.15389 2C5.00683 2 4.07697 2.92987 4.07697 4.07692C4.07697 5.22397 5.00683 6.15384 6.15389 6.15384Z" stroke="strokecolor" stroke-width="1.2" stroke-linecap="round" stroke-linejoin="round"/>
<path d="M10.3077 13.0769H2V12.1538C2 11.0522 2.43764 9.99563 3.21663 9.21663C3.99563 8.43764 5.05218 8 6.15384 8C7.25551 8 8.31206 8.43764 9.09105 9.21663C9.87005 9.99563 10.3077 11.0522 10.3077 12.1538V13.0769Z" stroke="strokecolor" stroke-width="1.2" stroke-linecap="round" stroke-linejoin="round"/>
<path d="M9.84619 2C10.397 2 10.9253 2.21882 11.3148 2.60832C11.7043 2.99781 11.9231 3.52609 11.9231 4.07692C11.9231 4.62776 11.7043 5.15603 11.3148 5.54553C10.9253 5.93502 10.397 6.15384 9.84619 6.15384" stroke="strokecolor" stroke-width="1.2" stroke-linecap="round" stroke-linejoin="round"/>
<path d="M11.3231 8.17542C12.1094 8.47454 12.7863 9.00536 13.2644 9.69765C13.7424 10.3899 13.9989 11.2111 14 12.0523V13.077H12.6154" stroke="strokecolor" stroke-width="1.2" stroke-linecap="round" stroke-linejoin="round"/>
</svg>
