<svg width="24" height="24" viewBox="0 0 24 24" fill="none" xmlns="http://www.w3.org/2000/svg">
<path d="M12 1.9989C13.7504 1.9989 15.4292 2.69425 16.6669 3.93199C17.9046 5.16973 18.6 6.84845 18.6 8.59888C18.6 15.9373 21.2769 17.3835 22 17.3835H2.00006C2.73852 17.3835 5.40005 15.9219 5.40005 8.59888C5.40005 6.84845 6.0954 5.16973 7.33314 3.93199C8.57087 2.69425 10.2496 1.9989 12 1.9989V1.9989Z" stroke="#1C1C1C" stroke-width="1.5" stroke-linecap="round" stroke-linejoin="round"/>
<path d="M9.69232 20.1986C9.82531 20.7094 10.124 21.1617 10.5416 21.4845C10.9592 21.8073 11.4722 21.9824 12 21.9824C12.5278 21.9824 13.0408 21.8073 13.4584 21.4845C13.876 21.1617 14.1747 20.7094 14.3077 20.1986" stroke="#1C1C1C" stroke-width="1.5" stroke-linecap="round" stroke-linejoin="round"/>
</svg>
