<svg width="20" height="20" viewBox="0 0 20 20" fill="none" xmlns="http://www.w3.org/2000/svg">
<path d="M10 4.28573C10.789 4.28573 11.4286 3.64614 11.4286 2.85716C11.4286 2.06818 10.789 1.42859 10 1.42859C9.21103 1.42859 8.57144 2.06818 8.57144 2.85716C8.57144 3.64614 9.21103 4.28573 10 4.28573Z" fill="#B7B7B7"/>
<path d="M10 11.4286C10.789 11.4286 11.4286 10.789 11.4286 9.99998C11.4286 9.211 10.789 8.57141 10 8.57141C9.21103 8.57141 8.57144 9.211 8.57144 9.99998C8.57144 10.789 9.21103 11.4286 10 11.4286Z" fill="#B7B7B7"/>
<path d="M10 18.5715C10.789 18.5715 11.4286 17.9319 11.4286 17.1429C11.4286 16.3539 10.789 15.7144 10 15.7144C9.21103 15.7144 8.57144 16.3539 8.57144 17.1429C8.57144 17.9319 9.21103 18.5715 10 18.5715Z" fill="#B7B7B7"/>
</svg>
