<svg width="20" height="20" viewBox="0 0 20 20" fill="none" xmlns="http://www.w3.org/2000/svg">
<path d="M6.3077 16.7692H16.7692C17.449 16.7692 18 16.2181 18 15.5384V7.53841C18 6.85867 17.449 6.30764 16.7692 6.30764L6.3077 6.30764C5.62797 6.30764 5.07694 6.85867 5.07694 7.53841L5.07694 15.5384C5.07694 16.2181 5.62797 16.7692 6.3077 16.7692Z" stroke="#979797" stroke-width="1.5" stroke-linecap="round" stroke-linejoin="round"/>
<path d="M2.00003 13.6922V4.46148C2.00003 4.13506 2.1297 3.82201 2.36051 3.5912C2.59133 3.36038 2.90438 3.23071 3.2308 3.23071H14.3077" stroke="#979797" stroke-width="1.5" stroke-linecap="round" stroke-linejoin="round"/>
<path d="M5.8154 16.6708L10.6523 11.5631C10.7667 11.4373 10.9059 11.3367 11.0611 11.2674C11.2164 11.1982 11.3843 11.1618 11.5542 11.1607C11.7242 11.1595 11.8926 11.1936 12.0487 11.2607C12.2049 11.3279 12.3454 11.4266 12.4615 11.5508L17.3231 16.6461" stroke="#979797" stroke-width="1.5" stroke-linecap="round" stroke-linejoin="round"/>
</svg>
