<svg width="50" height="50" viewBox="0 0 50 50" fill="none" xmlns="http://www.w3.org/2000/svg">
<rect width="50" height="50" rx="25" fill="#FF926D"/>
<rect x="32.1724" y="7.95056" width="2.03165" height="20.1214" rx="0.612557" transform="rotate(13.6197 32.1724 7.95056)" fill="#2E2E2E"/>
<rect x="37.1375" y="9.80151" width="2.03165" height="20.1214" rx="0.612557" transform="rotate(23.1107 37.1375 9.80151)" fill="#2E2E2E"/>
<path d="M36.3399 30.9047C36.3399 32.3682 36.0268 33.8175 35.4185 35.1696C34.8102 36.5218 33.9186 37.7504 32.7946 38.7853C31.6706 39.8202 30.3362 40.6411 28.8676 41.2012C27.3991 41.7613 25.8251 42.0495 24.2355 42.0495C22.6459 42.0495 21.0719 41.7613 19.6033 41.2012C18.1348 40.6411 16.8004 39.8202 15.6764 38.7853C14.5524 37.7504 13.6608 36.5218 13.0525 35.1696C12.4442 33.8175 12.1311 32.3682 12.1311 30.9047L24.2355 30.9047H36.3399Z" fill="#412B23"/>
<path d="M41.0636 25.2951C41.0636 27.3208 40.6283 29.3267 39.7826 31.1983C38.9369 33.0698 37.6974 34.7703 36.1347 36.2027C34.5721 37.6351 32.717 38.7714 30.6753 39.5466C28.6337 40.3218 26.4454 40.7208 24.2355 40.7208C22.0256 40.7208 19.8374 40.3218 17.7957 39.5466C15.754 38.7714 13.8989 37.6351 12.3363 36.2027C10.7737 34.7703 9.53412 33.0698 8.68843 31.1983C7.84274 29.3267 7.40747 27.3208 7.40747 25.2951L24.2355 25.2951H41.0636Z" fill="url(#paint0_linear_2229_9123)"/>
<ellipse cx="24.2355" cy="25.2949" rx="16.828" ry="5.83077" fill="url(#paint1_linear_2229_9123)"/>
<path d="M24.7102 14.3444C27.3655 14.3444 29.639 15.3877 30.5862 16.8678C30.7709 16.8869 30.9575 16.911 31.1448 16.941C33.9016 17.3832 36.0579 18.8975 36.6428 20.6139C38.8453 21.2508 40.3782 22.6677 40.3782 24.3141C40.378 25.3717 39.7447 26.3339 38.7083 27.0563C36.376 28.8486 30.6913 30.1168 24.0461 30.1168C18.5279 30.1168 13.6712 29.2429 10.8469 27.9205C8.95795 27.1419 7.71938 25.7687 7.78345 24.2565C7.84501 22.806 9.08973 21.584 10.9104 20.943C11.1779 19.031 13.4253 17.2139 16.4182 16.652C17.3448 16.478 18.2482 16.4427 19.0823 16.526C20.1421 15.2296 22.2643 14.3444 24.7102 14.3444Z" fill="white"/>
<path d="M18.6375 22.8567L19.3122 22.8672" stroke="#EBEBEB" stroke-width="1.02093" stroke-linecap="round"/>
<path d="M24.1504 25.9185L24.885 26.2755" stroke="#EBEBEB" stroke-width="1.02093" stroke-linecap="round"/>
<path d="M28.03 22.8152L28.7421 22.2437" stroke="#EBEBEB" stroke-width="1.02093" stroke-linecap="round"/>
<path d="M26.0938 18.0715L27.0041 18.0016" stroke="#EBEBEB" stroke-width="1.02093" stroke-linecap="round"/>
<path d="M18.6375 19.3972L19.2633 18.9763" stroke="#EBEBEB" stroke-width="1.02093" stroke-linecap="round"/>
<path d="M13.1248 25.9185L14.1316 26.2859" stroke="#EBEBEB" stroke-width="1.02093" stroke-linecap="round"/>
<path d="M34.1558 25.2448L34.9164 24.4896" stroke="#EBEBEB" stroke-width="1.02093" stroke-linecap="round"/>
<defs>
<linearGradient id="paint0_linear_2229_9123" x1="24.2355" y1="33.4877" x2="24.2355" y2="40.7208" gradientUnits="userSpaceOnUse">
<stop stop-color="#292929"/>
<stop offset="1" stop-color="#783C27"/>
</linearGradient>
<linearGradient id="paint1_linear_2229_9123" x1="41.0636" y1="25.2949" x2="7.40747" y2="25.2949" gradientUnits="userSpaceOnUse">
<stop stop-color="#727272"/>
<stop offset="1" stop-color="#D8D8D8"/>
</linearGradient>
</defs>
</svg>
