<svg width="25" height="25" viewBox="0 0 25 25" fill="none" xmlns="http://www.w3.org/2000/svg">
<path d="M8.11767 10.7588L3.41481 15.4177C3.27749 15.5539 3.1685 15.7159 3.09412 15.8945C3.01974 16.073 2.98145 16.2645 2.98145 16.4579C2.98145 16.6513 3.01974 16.8428 3.09412 17.0213C3.1685 17.1999 3.27749 17.3619 3.41481 17.4981L6.52075 20.604C6.65694 20.7413 6.81898 20.8503 6.99751 20.9247C7.17604 20.9991 7.36754 21.0374 7.56094 21.0374C7.75435 21.0374 7.94584 20.9991 8.12437 20.9247C8.3029 20.8503 8.46494 20.7413 8.60114 20.604L13.26 15.9012" stroke="#F4F5F7" stroke-width="1.5" stroke-linecap="round" stroke-linejoin="round"/>
<path d="M16.908 12.2532L21.5669 7.5943C21.7042 7.4581 21.8132 7.29607 21.8876 7.11754C21.962 6.939 22.0003 6.74751 22.0003 6.55411C22.0003 6.3607 21.962 6.16921 21.8876 5.99068C21.8132 5.81214 21.7042 5.65011 21.5669 5.51391L18.5049 2.40797C18.3687 2.27065 18.2067 2.16166 18.0282 2.08728C17.8496 2.0129 17.6581 1.97461 17.4647 1.97461C17.2713 1.97461 17.0798 2.0129 16.9013 2.08728C16.7228 2.16166 16.5607 2.27065 16.4245 2.40797L11.7656 7.11083" stroke="#F4F5F7" stroke-width="1.5" stroke-linecap="round" stroke-linejoin="round"/>
<path d="M15.4433 8.57617L9.58301 14.4364" stroke="#F4F5F7" stroke-width="1.5" stroke-linecap="round" stroke-linejoin="round"/>
</svg>
