<svg width="17" height="16" viewBox="0 0 17 16" fill="none" xmlns="http://www.w3.org/2000/svg">
<path d="M9.88696 14.448C10.5488 14.8756 11.3374 15.062 12.1203 14.9757C12.9031 14.8895 13.6325 14.5359 14.1857 13.9744L14.6693 13.5009C14.8813 13.2837 15 12.992 15 12.6882C15 12.3845 14.8813 12.0928 14.6693 11.8756L12.6166 9.84134C12.4016 9.62967 12.1121 9.51107 11.8106 9.51107C11.5091 9.51107 11.2197 9.62967 11.0046 9.84134V9.84134C10.7878 10.0537 10.4965 10.1726 10.1932 10.1726C9.88996 10.1726 9.59873 10.0537 9.38186 9.84134L6.15783 6.61235C6.05028 6.5062 5.96487 6.37969 5.90658 6.24018C5.84828 6.10068 5.81826 5.95095 5.81826 5.79972C5.81826 5.64849 5.84828 5.49877 5.90658 5.35926C5.96487 5.21975 6.05028 5.09325 6.15783 4.98709V4.98709C6.36917 4.77172 6.4876 4.48182 6.4876 4.17985C6.4876 3.87787 6.36917 3.58798 6.15783 3.3726L4.11595 1.32757C3.89909 1.11523 3.60785 0.996338 3.30457 0.996338C3.00128 0.996338 2.71005 1.11523 2.49319 1.32757L2.02033 1.81192C1.45972 2.36595 1.10668 3.09642 1.02056 3.88048C0.934445 4.66455 1.12051 5.45441 1.54747 6.11724C3.7721 9.40083 6.60268 12.2285 9.88696 14.448V14.448Z" stroke="#979797" stroke-width="1.2" stroke-linecap="round" stroke-linejoin="round"/>
</svg>
