<svg width="50" height="50" viewBox="0 0 50 50" fill="none" xmlns="http://www.w3.org/2000/svg">
<rect width="50" height="50" rx="25" fill="#E4E4E4"/>
<rect x="32.1724" y="7.95056" width="2.03165" height="20.1214" rx="0.612557" transform="rotate(13.6197 32.1724 7.95056)" fill="#2E2E2E"/>
<rect x="37.1375" y="9.80151" width="2.03165" height="20.1214" rx="0.612557" transform="rotate(23.1107 37.1375 9.80151)" fill="#2E2E2E"/>
<path d="M36.3399 30.9047C36.3399 32.3682 36.0268 33.8175 35.4185 35.1696C34.8102 36.5218 33.9186 37.7504 32.7946 38.7853C31.6706 39.8202 30.3362 40.6411 28.8676 41.2012C27.3991 41.7613 25.8251 42.0495 24.2355 42.0495C22.6459 42.0495 21.0719 41.7613 19.6033 41.2012C18.1348 40.6411 16.8004 39.8202 15.6764 38.7853C14.5524 37.7504 13.6608 36.5218 13.0525 35.1696C12.4442 33.8175 12.1311 32.3682 12.1311 30.9047L24.2355 30.9047H36.3399Z" fill="#2F2F2F"/>
<path d="M41.0636 25.2951C41.0636 27.3208 40.6283 29.3267 39.7826 31.1983C38.9369 33.0698 37.6974 34.7703 36.1347 36.2027C34.5721 37.6351 32.717 38.7714 30.6753 39.5466C28.6337 40.3218 26.4454 40.7208 24.2355 40.7208C22.0256 40.7208 19.8374 40.3218 17.7957 39.5466C15.754 38.7714 13.8989 37.6351 12.3363 36.2027C10.7737 34.7703 9.53412 33.0698 8.68843 31.1983C7.84274 29.3267 7.40747 27.3208 7.40747 25.2951L24.2355 25.2951H41.0636Z" fill="url(#paint0_linear_2229_9151)"/>
<ellipse cx="24.2355" cy="25.2949" rx="16.828" ry="5.83077" fill="url(#paint1_linear_2229_9151)"/>
<ellipse cx="24.0739" cy="25.1598" rx="15.6037" ry="4.97233" fill="url(#paint2_linear_2229_9151)"/>
<defs>
<linearGradient id="paint0_linear_2229_9151" x1="24.2355" y1="33.4877" x2="24.2355" y2="40.7208" gradientUnits="userSpaceOnUse">
<stop stop-color="#292929"/>
<stop offset="1" stop-color="#4D4D4D"/>
</linearGradient>
<linearGradient id="paint1_linear_2229_9151" x1="41.0636" y1="25.2949" x2="7.40747" y2="25.2949" gradientUnits="userSpaceOnUse">
<stop stop-color="#727272"/>
<stop offset="1" stop-color="#D8D8D8"/>
</linearGradient>
<linearGradient id="paint2_linear_2229_9151" x1="39.6775" y1="25.1598" x2="8.47022" y2="25.1598" gradientUnits="userSpaceOnUse">
<stop stop-color="#686868"/>
<stop offset="1" stop-color="#282828"/>
</linearGradient>
</defs>
</svg>
