<svg width="16" height="16" viewBox="0 0 16 16" fill="none" xmlns="http://www.w3.org/2000/svg">
<path d="M2 2V4.07692C2 4.68896 2.24313 5.27593 2.67591 5.70871C3.10868 6.14149 3.69565 6.38462 4.30769 6.38462C4.91973 6.38462 5.5067 6.14149 5.93948 5.70871C6.37226 5.27593 6.61539 4.68896 6.61539 4.07692V2" stroke="#979797" stroke-width="1.2" stroke-linecap="round" stroke-linejoin="round"/>
<path d="M4.30769 2V14" stroke="#979797" stroke-width="1.2" stroke-linecap="round" stroke-linejoin="round"/>
<path d="M14 14C12.4087 14 10.8826 13.3679 9.75736 12.2426C8.63214 11.1174 8 9.5913 8 8C8 6.4087 8.63214 4.88258 9.75736 3.75736C10.8826 2.63214 12.4087 2 14 2" stroke="#979797" stroke-width="1.2" stroke-linecap="round" stroke-linejoin="round"/>
<path d="M14 11.2308C13.1431 11.2308 12.3214 10.8904 11.7155 10.2846C11.1096 9.67867 10.7692 8.85691 10.7692 8.00006C10.7692 7.1432 11.1096 6.32145 11.7155 5.71556C12.3214 5.10967 13.1431 4.76929 14 4.76929" stroke="#979797" stroke-width="1.2" stroke-linecap="round" stroke-linejoin="round"/>
</svg>
