<svg width="25" height="25" viewBox="0 0 25 25" fill="none" xmlns="http://www.w3.org/2000/svg">
<path d="M1.7336 9.69184C2.58704 8.83859 3.97106 8.83848 4.82443 9.69184C4.85077 9.71819 4.87627 9.74505 4.90093 9.77239C5.21191 10.1172 5.80571 10.2753 6.13403 9.94699L8.09038 7.99064C8.3247 7.75633 8.70459 7.75633 8.93891 7.99064L16.1972 15.249C16.4316 15.4833 16.4316 15.8632 16.1972 16.0975L8.93891 23.3559C8.7046 23.5902 8.3247 23.5902 8.09038 23.3559L0.832041 16.0975C0.597726 15.8632 0.597726 15.4833 0.832041 15.249L1.98816 14.0929C2.31646 13.7646 2.15868 13.1702 1.81404 12.8591C1.78674 12.8345 1.75991 12.809 1.7336 12.7827C0.880176 11.9292 0.880176 10.5453 1.7336 9.69184Z" fill="bgColor"/>
<path d="M1.7336 9.69184L1.30938 9.26753L1.30934 9.26758L1.7336 9.69184ZM4.82443 9.69184L5.24875 9.26763L5.2487 9.26758L4.82443 9.69184ZM1.7336 12.7827L1.30934 13.2069L1.30939 13.207L1.7336 12.7827ZM4.90093 9.77239L5.34648 9.37054L4.90093 9.77239ZM1.7336 9.69184L2.15782 10.1162C2.777 9.49711 3.78116 9.4971 4.40017 10.1161L4.82443 9.69184L5.2487 9.26758C4.16097 8.17985 2.39708 8.18007 1.30938 9.26753L1.7336 9.69184ZM4.82443 9.69184L4.40011 10.1161C4.41917 10.1351 4.43759 10.1545 4.45538 10.1742L4.90093 9.77239L5.34648 9.37054C5.31495 9.33558 5.28237 9.30127 5.24875 9.26763L4.82443 9.69184ZM6.13403 9.94699L6.5583 10.3713L8.51464 8.41491L8.09038 7.99064L7.66612 7.56638L5.70977 9.52273L6.13403 9.94699ZM8.93891 7.99064L8.51464 8.41491L15.773 15.6732L16.1972 15.249L16.6215 14.8247L9.36317 7.56638L8.93891 7.99064ZM16.1972 16.0975L15.773 15.6732L8.51465 22.9316L8.93891 23.3559L9.36317 23.7801L16.6215 16.5218L16.1972 16.0975ZM8.09038 23.3559L8.51464 22.9316L1.25631 15.6732L0.832041 16.0975L0.407777 16.5218L7.66612 23.7801L8.09038 23.3559ZM0.832041 15.249L1.2563 15.6732L2.41242 14.5171L1.98816 14.0929L1.56389 13.6686L0.407777 14.8247L0.832041 15.249ZM1.81404 12.8591L2.21608 12.4137C2.19633 12.3959 2.1769 12.3774 2.15781 12.3584L1.7336 12.7827L1.30939 13.207C1.34293 13.2405 1.37714 13.273 1.412 13.3045L1.81404 12.8591ZM1.7336 12.7827L2.15787 12.3584C1.53875 11.7393 1.53875 10.7352 2.15787 10.1161L1.7336 9.69184L1.30934 9.26758C0.221598 10.3553 0.221598 12.1192 1.30934 13.2069L1.7336 12.7827ZM1.98816 14.0929L2.41242 14.5171C2.75414 14.1754 2.80949 13.7242 2.7438 13.3624C2.67876 13.0041 2.48733 12.6586 2.21608 12.4137L1.81404 12.8591L1.412 13.3045C1.48539 13.3707 1.54517 13.478 1.5631 13.5767C1.57138 13.6223 1.56797 13.651 1.56495 13.6634C1.56357 13.6691 1.56243 13.6709 1.56278 13.6702C1.56327 13.6693 1.56397 13.6685 1.56389 13.6686L1.98816 14.0929ZM0.832041 16.0975L1.25631 15.6732L1.2563 15.6732L0.832041 15.249L0.407777 14.8247C-0.0608531 15.2934 -0.0608516 16.0531 0.407777 16.5218L0.832041 16.0975ZM8.93891 23.3559L8.51465 22.9316L8.51464 22.9316L8.09038 23.3559L7.66612 23.7801C8.13475 24.2487 8.89455 24.2487 9.36317 23.7801L8.93891 23.3559ZM16.1972 15.249L15.773 15.6732L16.1972 16.0975L16.6215 16.5218C17.0901 16.0531 17.0901 15.2933 16.6215 14.8247L16.1972 15.249ZM8.09038 7.99064L8.51464 8.41491L8.93891 7.99064L9.36317 7.56638C8.89454 7.09775 8.13475 7.09775 7.66612 7.56638L8.09038 7.99064ZM4.90093 9.77239L4.45538 10.1742C4.70001 10.4455 5.04524 10.6372 5.40347 10.7024C5.76532 10.7683 6.21653 10.713 6.5583 10.3713L6.13403 9.94699L5.70977 9.52273C5.70968 9.52282 5.71049 9.52211 5.71141 9.52161C5.71208 9.52124 5.71034 9.52236 5.70474 9.52372C5.6925 9.5267 5.66394 9.5301 5.61849 9.52182C5.51999 9.50389 5.41283 9.44411 5.34648 9.37054L4.90093 9.77239Z" fill="strokeColor"/>
<path d="M9.78865 6.29228C9.98097 6.09996 10.3018 6.14302 10.4941 6.33538C11.3203 7.16156 12.6302 7.19206 13.4192 6.40305C14.2078 5.614 14.1776 4.30398 13.3515 3.47795C13.1592 3.28567 13.1161 2.96484 13.3084 2.77251L15.1998 0.881128C15.4341 0.646814 15.814 0.646814 16.0483 0.881128L23.3067 8.13947C23.541 8.37378 23.541 8.75368 23.3067 8.988L21.2434 11.0513C21.1151 11.1796 20.9051 11.16 20.7768 11.0317C19.9514 10.2063 18.643 10.1761 17.8545 10.964C17.066 11.7525 17.0959 13.0614 17.9215 13.8871C18.0498 14.0153 18.0694 14.2253 17.9411 14.3536L16.4129 15.8817C16.1786 16.116 15.7987 16.116 15.5644 15.8817L14.0572 14.3746C13.7998 14.1171 13.3534 14.2083 13.096 14.4657C12.3005 15.2612 10.9804 15.231 10.1474 14.3981C9.31448 13.5651 9.28428 12.245 10.0798 11.4495C10.3372 11.1921 10.4278 10.7451 10.1704 10.4877L8.30607 8.62339C8.07175 8.38908 8.07175 8.00918 8.30607 7.77487L9.78865 6.29228Z" fill="bgColor"/>
<path d="M13.4192 6.40305L13.8435 6.82732L13.8436 6.82719L13.4192 6.40305ZM17.8545 10.964L17.4304 10.5396L17.4302 10.5398L17.8545 10.964ZM10.1474 14.3981L9.72318 14.8223L9.72318 14.8223L10.1474 14.3981ZM10.4941 6.33538L10.0698 6.75964C11.1116 7.80139 12.8018 7.86896 13.8435 6.82732L13.4192 6.40305L12.9949 5.97879C12.4586 6.51516 11.529 6.52174 10.9184 5.91112L10.4941 6.33538ZM13.4192 6.40305L13.8436 6.82719C14.8845 5.78564 14.8175 4.09541 13.7758 3.05369L13.3515 3.47795L12.9273 3.90221C13.5376 4.51255 13.531 5.44236 12.9948 5.97892L13.4192 6.40305ZM13.3084 2.77251L13.7327 3.19678L15.6241 1.30539L15.1998 0.881128L14.7755 0.456864L12.8842 2.34825L13.3084 2.77251ZM16.0483 0.881128L15.6241 1.30539L22.8824 8.56373L23.3067 8.13947L23.7309 7.7152L16.4726 0.456864L16.0483 0.881128ZM23.3067 8.988L22.8824 8.56373L20.8191 10.627L21.2434 11.0513L21.6676 11.4756L23.7309 9.41226L23.3067 8.988ZM20.7768 11.0317L21.2011 10.6074C20.16 9.56631 18.4714 9.4994 17.4304 10.5396L17.8545 10.964L18.2786 11.3885C18.8146 10.8528 19.7428 10.8462 20.3526 11.456L20.7768 11.0317ZM17.8545 10.964L17.4302 10.5398C16.3894 11.5806 16.4558 13.2699 17.4972 14.3113L17.9215 13.8871L18.3457 13.4628C17.7359 12.853 17.7427 11.9244 18.2788 11.3883L17.8545 10.964ZM17.9411 14.3536L17.5168 13.9293L15.9887 15.4575L16.4129 15.8817L16.8372 16.306L18.3653 14.7779L17.9411 14.3536ZM15.5644 15.8817L15.9887 15.4575L14.4815 13.9503L14.0572 14.3746L13.633 14.7988L15.1401 16.306L15.5644 15.8817ZM13.096 14.4657L12.6718 14.0415C12.1287 14.5845 11.1889 14.591 10.5717 13.9738L10.1474 14.3981L9.72318 14.8223C10.7719 15.8711 12.4724 15.9379 13.5203 14.89L13.096 14.4657ZM10.1474 14.3981L10.5717 13.9738C9.95451 13.3566 9.96099 12.4168 10.504 11.8737L10.0798 11.4495L9.65551 11.0252C8.60757 12.0731 8.67445 13.7736 9.72318 14.8223L10.1474 14.3981ZM10.1704 10.4877L10.5946 10.0634L8.73033 8.19913L8.30607 8.62339L7.8818 9.04766L9.74611 10.912L10.1704 10.4877ZM8.30607 7.77487L8.73033 8.19913L10.2129 6.71654L9.78865 6.29228L9.36439 5.86802L7.8818 7.3506L8.30607 7.77487ZM14.0572 14.3746L14.4815 13.9503C14.1925 13.6613 13.8156 13.5911 13.4996 13.632C13.1893 13.6722 12.892 13.8212 12.6717 14.0415L13.096 14.4657L13.5203 14.89C13.5366 14.8737 13.5589 14.8572 13.5853 14.8441C13.6118 14.831 13.636 14.8244 13.6537 14.8221C13.6714 14.8198 13.6756 14.8226 13.6686 14.8206C13.6593 14.8179 13.6448 14.8107 13.633 14.7988L14.0572 14.3746ZM16.4129 15.8817L15.9887 15.4575L15.5644 15.8817L15.1401 16.306C15.6088 16.7746 16.3686 16.7746 16.8372 16.306L16.4129 15.8817ZM8.30607 8.62339L8.73033 8.19913L8.73033 8.19913L8.30607 7.77487L7.8818 7.3506C7.41317 7.81923 7.41317 8.57903 7.8818 9.04766L8.30607 8.62339ZM21.2434 11.0513L20.8191 10.627C20.8885 10.5577 20.9768 10.5348 21.0448 10.5387C21.1081 10.5424 21.1619 10.5682 21.2011 10.6074L20.7768 11.0317L20.3526 11.456C20.6676 11.771 21.2601 11.8831 21.6676 11.4756L21.2434 11.0513ZM10.0798 11.4495L10.504 11.8738C10.7247 11.6531 10.8733 11.3555 10.9132 11.0451C10.9539 10.7292 10.8836 10.3524 10.5946 10.0634L10.1704 10.4877L9.74611 10.912C9.73423 10.9001 9.72711 10.8857 9.72448 10.8766C9.72253 10.8698 9.72531 10.8742 9.72302 10.8921C9.72072 10.9099 9.71413 10.9341 9.70103 10.9606C9.68797 10.9869 9.67161 11.0091 9.65553 11.0252L10.0798 11.4495ZM23.3067 8.13947L22.8824 8.56373L23.3067 8.988L23.7309 9.41226C24.1996 8.94363 24.1996 8.18383 23.7309 7.7152L23.3067 8.13947ZM13.3515 3.47795L13.7757 3.0536C13.7784 3.05634 13.7824 3.06006 13.7836 3.07505C13.7844 3.08464 13.7841 3.10264 13.7763 3.12623C13.768 3.15117 13.7531 3.1764 13.7327 3.19678L13.3084 2.77251L12.8842 2.34825C12.3934 2.83898 12.5703 3.54536 12.9273 3.9023L13.3515 3.47795ZM15.1998 0.881128L15.6241 1.30539L16.0483 0.881128L16.4726 0.456864C16.004 -0.0117653 15.2442 -0.0117647 14.7755 0.456864L15.1998 0.881128ZM17.9215 13.8871L17.4972 14.3113C17.458 14.2721 17.4322 14.2183 17.4285 14.155C17.4246 14.087 17.4475 13.9987 17.5168 13.9293L17.9411 14.3536L18.3653 14.7779C18.7728 14.3704 18.6608 13.7778 18.3457 13.4628L17.9215 13.8871ZM10.4941 6.33538L10.9184 5.9112C10.5615 5.55411 9.85511 5.3773 9.36439 5.86802L9.78865 6.29228L10.2129 6.71654C10.1925 6.73693 10.1673 6.75186 10.1424 6.76016C10.1188 6.768 10.1008 6.76828 10.0912 6.76747C10.0762 6.76622 10.0725 6.76231 10.0697 6.75956L10.4941 6.33538Z" fill="strokeColor"/>
</svg>
