<svg width="24" height="24" viewBox="0 0 24 24" fill="none" xmlns="http://www.w3.org/2000/svg">
<path d="M4.28302 5.76001C3.9109 5.76001 3.55402 5.92552 3.2909 6.22012C3.02777 6.51472 2.87994 6.91429 2.87994 7.33092V21.4691C2.87994 21.8857 3.02777 22.2853 3.2909 22.5799C3.55402 22.8745 3.9109 23.04 4.28302 23.04H19.7169C20.089 23.04 20.4459 22.8745 20.709 22.5799C20.9721 22.2853 21.1199 21.8857 21.1199 21.4691V7.33092C21.1199 6.91429 20.9721 6.51472 20.709 6.22012C20.4459 5.92552 20.089 5.76001 19.7169 5.76001H16.9107" fill='bgColor'/>
<path d="M4.28302 5.76001C3.9109 5.76001 3.55402 5.92552 3.2909 6.22012C3.02777 6.51472 2.87994 6.91429 2.87994 7.33092V21.4691C2.87994 21.8857 3.02777 22.2853 3.2909 22.5799C3.55402 22.8745 3.9109 23.04 4.28302 23.04H19.7169C20.089 23.04 20.4459 22.8745 20.709 22.5799C20.9721 22.2853 21.1199 21.8857 21.1199 21.4691V7.33092C21.1199 6.91429 20.9721 6.51472 20.709 6.22012C20.4459 5.92552 20.089 5.76001 19.7169 5.76001H16.9107H4.28302Z" stroke='strokeColor' stroke-width="1.2" stroke-linecap="round" stroke-linejoin="round"/>
<path d="M8.75994 0.959961C8.75994 0.62859 8.49131 0.359961 8.15994 0.359961C7.82857 0.359961 7.55994 0.62859 7.55994 0.959961H8.15994H8.75994ZM7.55994 5.75996V6.35996H8.75994V5.75996H8.15994H7.55994ZM8.15994 0.959961H7.55994V5.75996H8.15994H8.75994V0.959961H8.15994Z" fill='strokeColor'/>
<path d="M16.44 0.959961C16.44 0.62859 16.1713 0.359961 15.84 0.359961C15.5086 0.359961 15.24 0.62859 15.24 0.959961H15.84H16.44ZM15.24 5.75996V6.35996H16.44V5.75996H15.84H15.24ZM15.84 0.959961H15.24V5.75996H15.84H16.44V0.959961H15.84Z" fill='strokeColor'/>
<path d="M2.87994 11.52L21.1199 11.52" stroke='strokeColor' stroke-width="1.2" stroke-linecap="round" stroke-linejoin="round"/>
</svg>
