<svg width="16" height="16" viewBox="0 0 16 16" fill="none" xmlns="http://www.w3.org/2000/svg">
<g clip-path="url(#clip0_1918_7053)">
<path d="M8.53815 10.1517L5.31035 10.7327L5.84832 7.46185L12.0134 1.31826C12.1134 1.21741 12.2324 1.13737 12.3636 1.08275C12.4947 1.02812 12.6353 1 12.7773 1C12.9194 1 13.06 1.02812 13.1911 1.08275C13.3222 1.13737 13.4412 1.21741 13.5413 1.31826L14.6817 2.45875C14.7826 2.55877 14.8626 2.67777 14.9173 2.80889C14.9719 2.94 15 3.08063 15 3.22267C15 3.3647 14.9719 3.50533 14.9173 3.63644C14.8626 3.76756 14.7826 3.88656 14.6817 3.98658L8.53815 10.1517Z" stroke="#979797" stroke-width="1.2" stroke-linecap="round" stroke-linejoin="round"/>
<path d="M13.3799 10.6898V13.9176C13.3799 14.2029 13.2665 14.4766 13.0647 14.6784C12.8629 14.8801 12.5893 14.9935 12.3039 14.9935H2.08254C1.79719 14.9935 1.52352 14.8801 1.32174 14.6784C1.11996 14.4766 1.00661 14.2029 1.00661 13.9176V3.69617C1.00661 3.41082 1.11996 3.13715 1.32174 2.93537C1.52352 2.7336 1.79719 2.62024 2.08254 2.62024H5.31035" stroke="#979797" stroke-width="1.2" stroke-linecap="round" stroke-linejoin="round"/>
</g>
<defs>
<clipPath id="clip0_1918_7053">
<rect width="16" height="16" fill="white"/>
</clipPath>
</defs>
</svg>
