<svg width="240" height="240" viewBox="0 0 240 240" fill="none" xmlns="http://www.w3.org/2000/svg">
<rect width="240" height="240" rx="20" fill="#FF6D3B"/>
<rect x="159.286" y="32" width="9.95" height="98.5445" rx="3" transform="rotate(13.6197 159.286 32)" fill="#2E2E2E"/>
<rect x="183.603" y="41.0659" width="9.95" height="98.5445" rx="3" transform="rotate(23.1107 183.603 41.0659)" fill="#2E2E2E"/>
<path d="M179.697 144.418C179.697 151.585 178.164 158.683 175.185 165.305C172.206 171.928 167.839 177.945 162.334 183.013C156.829 188.081 150.294 192.102 143.102 194.845C135.91 197.588 128.201 199 120.416 199C112.631 199 104.922 197.588 97.7301 194.845C90.5377 192.102 84.0026 188.081 78.4979 183.013C72.9931 177.945 68.6264 171.928 65.6473 165.305C62.6681 158.683 61.1348 151.585 61.1348 144.418L120.416 144.418H179.697Z" fill="#412B23"/>
<path d="M202.831 116.946C202.831 126.867 200.699 136.691 196.557 145.857C192.416 155.023 186.345 163.351 178.692 170.366C171.039 177.381 161.954 182.946 151.954 186.743C141.955 190.539 131.238 192.493 120.415 192.493C109.592 192.493 98.8755 190.539 88.8764 186.743C78.8773 182.946 69.7919 177.381 62.1389 170.366C54.4859 163.351 48.4153 155.023 44.2735 145.857C40.1317 136.691 38 126.867 38 116.946L120.415 116.946H202.831Z" fill="url(#paint0_linear_1061_15115)"/>
<ellipse cx="120.415" cy="116.945" rx="82.4154" ry="28.5562" fill="url(#paint1_linear_1061_15115)"/>
<path d="M122.741 63.3115C135.746 63.3115 146.883 68.42 151.521 75.6689C152.425 75.7623 153.335 75.8805 154.251 76.0273C167.757 78.1929 178.331 85.6098 181.193 94.0186C191.974 97.1394 199.474 104.079 199.475 112.14C199.475 117.253 196.455 121.914 191.496 125.437C180.195 134.293 152.216 140.562 119.488 140.562C92.4756 140.562 68.6982 136.288 54.8632 129.817C45.601 126.005 39.5278 119.274 39.8417 111.863C40.1427 104.76 46.2369 98.7755 55.1522 95.6357C56.4604 86.2705 67.4674 77.3676 82.1269 74.6152C86.6645 73.7633 91.0899 73.5881 95.1747 73.9961C100.365 67.6462 110.761 63.3115 122.741 63.3115Z" fill="white"/>
<path d="M93 105L96.3046 105.051" stroke="#EBEBEB" stroke-width="5" stroke-linecap="round"/>
<path d="M120 120L123.598 121.748" stroke="#EBEBEB" stroke-width="5" stroke-linecap="round"/>
<path d="M139 104.799L142.487 102" stroke="#EBEBEB" stroke-width="5" stroke-linecap="round"/>
<path d="M129.517 81.5693L133.975 81.2269" stroke="#EBEBEB" stroke-width="5" stroke-linecap="round"/>
<path d="M93 88.0615L96.0651 86.0001" stroke="#EBEBEB" stroke-width="5" stroke-linecap="round"/>
<path d="M66 120L70.931 121.8" stroke="#EBEBEB" stroke-width="5" stroke-linecap="round"/>
<path d="M169 116.698L172.725 113" stroke="#EBEBEB" stroke-width="5" stroke-linecap="round"/>
<defs>
<linearGradient id="paint0_linear_1061_15115" x1="120.415" y1="157.069" x2="120.415" y2="192.493" gradientUnits="userSpaceOnUse">
<stop stop-color="#292929"/>
<stop offset="1" stop-color="#783C27"/>
</linearGradient>
<linearGradient id="paint1_linear_1061_15115" x1="202.831" y1="116.945" x2="38" y2="116.945" gradientUnits="userSpaceOnUse">
<stop stop-color="#727272"/>
<stop offset="1" stop-color="#D8D8D8"/>
</linearGradient>
</defs>
</svg>
